<svg width="324" height="59" viewBox="0 0 324 59" fill="none" xmlns="http://www.w3.org/2000/svg">
<g clip-path="url(#clip0_125_48)">
<path d="M29.2 58.4C45.04 58.4 58.48 46.64 58.48 29.2C58.48 11.76 45.04 0 29.2 0C13.36 0 0 11.76 0 29.2C0 46.64 13.36 58.4 29.2 58.4ZM29.2 48C19.52 48 11.2 40.64 11.2 29.2C11.2 17.76 19.52 10.4 29.2 10.4C38.96 10.4 47.2 17.76 47.2 29.2C47.2 40.64 38.96 48 29.2 48ZM71.82 57.6V18.8H72.22L98.3 57.6H109.26V0.8H98.3V39.6H97.9L71.82 0.8H60.86V57.6H71.82ZM124.48 57.6V38.8H132.96L144.64 57.6H156.32L143.04 36.96C149.6 34.16 153.52 28.24 153.52 20.08C153.52 8.48 145.52 0.8 133.44 0.8H113.52V57.6H124.48ZM132.32 29.28H124.48V10.88H132.32C138.32 10.88 142.4 13.52 142.4 20.08C142.4 26.72 138.32 29.28 132.32 29.28ZM227.34 57.6V21.92H227.74L242.94 57.6H251.02L266.3 21.92H266.7V57.6H277.66V0.8H265.58L247.02 43.6L228.46 0.8H216.38V57.6H227.34ZM293.88 57.6V39.36H303C315.32 39.36 323.32 31.68 323.32 20.08C323.32 8.48 315.32 0.8 303 0.8H282.92V57.6H293.88ZM302.04 29.28H293.88V10.88H302.04C307.96 10.88 312.2 13.52 312.2 20.08C312.2 26.72 307.96 29.28 302.04 29.28Z" fill="black"/>
<path fill-rule="evenodd" clip-rule="evenodd" d="M159.738 57.6H171.195L184.738 2.93146H179.189L159.738 57.6Z" fill="black"/>
<path fill-rule="evenodd" clip-rule="evenodd" d="M211.666 57.6H200.21L186.81 2.93146H192.36L211.666 57.6Z" fill="black"/>
</g>
<defs>
<clipPath id="clip0_125_48">
<rect width="324" height="59" fill="white"/>
</clipPath>
</defs>
</svg>
