<svg width="60" height="18" viewBox="0 0 60 18" fill="none" aria-hidden="true" xmlns="http://www.w3.org/2000/svg"><path d="M6.5483 13.9086C4.29924 13.9086 2.76988 13.1824 2.76988 11.209C2.76988 9.23557 4.29924 8.89154 6.5483 8.89154H14.3419L14.3561 13.9086H6.5483ZM8.52746 0.0853438C4.9053 0.0853438 2.19697 1.83416 0.823859 4.1038L3.18182 5.3748C4.27557 3.4253 6.15057 2.54611 8.55587 2.56045C13.1676 2.58434 14.3513 3.9939 14.3513 6.59324C13.7074 6.59324 5.65341 6.54545 4.63542 6.6888C1.86553 6.86559 0 8.48062 0 11.2281C0 14.5202 2.69887 16.2882 6.36364 16.2882H17.0691V7.04238C17.0691 2.05396 14.5597 0.0805664 8.52273 0.0805664" fill="black"></path><path d="M31.2879 8.0984C33.5369 8.0984 35.1326 7.4629 35.1326 5.48951C35.1326 3.51612 33.6032 2.78983 31.3542 2.78983H23.5511L23.5748 8.0984H31.2879ZM35.0426 16.293L30.142 10.5257H23.5559L23.5748 16.293H20.8286V0.405518H31.5341C35.1989 0.405518 37.8977 2.17823 37.8977 5.46562C37.8977 8.21308 35.9896 9.89022 33.2434 10.3919L38.3712 16.293H35.0426Z" fill="black"></path><path d="M55.7718 11.7059L58.2671 12.953C56.7803 15.2704 53.9063 16.9237 49.9243 16.9237C44.0294 16.9237 40.322 13.7223 40.322 8.50449C40.322 3.28671 44.0341 0.0853271 50.0379 0.0853271C53.9063 0.0853271 56.7851 1.76725 58.2481 4.03689L55.7292 5.30789C54.5597 3.35839 52.5568 2.49353 49.9953 2.49353C45.8334 2.49353 43.0682 4.5386 43.0682 8.50927C43.0682 12.4799 45.8334 14.525 49.9953 14.525C52.5616 14.525 54.5834 13.684 55.7765 11.7107" fill="black"></path></svg>
