<svg width="48" height="48" viewBox="0 0 48 48" fill="none" xmlns="http://www.w3.org/2000/svg"><path d="M45.4154 38.9484L44.4069 35.1573L37.5074 5.61525C37.0029 3.45573 34.6783 2.26725 32.6325 3.12309L29.9344 4.25157C26.4607 5.70501 22.5482 5.69973 19.0783 4.23765L16.3485 3.08757C14.3421 2.24229 12.0516 3.36549 11.4914 5.46981L3.45573 35.6729L2.58405 38.9479C2.19285 40.4191 3.69813 41.7545 5.37237 41.4002C7.86597 40.8722 11.5101 40.9615 16.1767 43.3769C20.8552 45.7985 27.1485 45.7965 31.8232 43.3769C36.4893 40.9615 40.134 40.8722 42.6271 41.4002C44.3013 41.7549 45.8066 40.4196 45.4154 38.9484Z" fill="#FF3962"></path><path d="M23.8703 35.9973C20.1272 35.9973 16.3837 35.3733 12.9287 31.7742L15.8082 27.5992C17.4877 29.4707 21.3272 30.8627 23.9667 30.9107C26.1743 30.9587 28.2378 29.8067 28.2378 28.0792C28.2378 28.049 29.3955 28.6389 29.3946 28.6096V26.4424C28.6866 25.875 25.556 25.6994 23.5347 25.5837C19.0717 25.2477 13.7447 23.6162 13.7447 18.2411C13.7447 17.008 14.0341 15.9573 14.529 15.0664L6.92577 22.6686L3.45585 35.7122L2.58417 38.9872C2.19249 40.4584 3.69825 41.7938 5.37249 41.439C7.86609 40.911 11.5103 41.0003 16.1768 43.4157C17.0293 43.8568 18.9906 44.6224 20.0677 44.7693L31.0856 33.9933C29.3984 35.2293 26.9931 35.9973 23.8703 35.9973Z" fill="#C61E4E"></path><path d="M19.5039 18.0468C19.5039 19.5824 20.8954 20.4464 23.9189 20.6384C24.8943 20.7012 25.9273 20.7987 26.9458 20.9782L29.6665 17.7968C27.9893 16.2214 26.0732 15.6953 23.8229 15.6953C21.0394 15.6953 19.5039 16.5593 19.5039 18.0468Z" fill="#C61E4E"></path><path d="M29.6764 17.7706C27.9969 16.1871 26.0773 15.6591 23.8213 15.6591C21.0378 15.6591 19.5023 16.5231 19.5023 18.0106C19.5023 19.5461 20.8938 20.4101 23.9173 20.6021C28.3804 20.8901 34.0434 21.8976 34.0434 28.1847C34.0434 32.3597 30.6359 35.9592 23.8693 35.9592C20.1263 35.9592 16.3828 35.3352 12.9277 31.7362L15.8073 27.5611C17.4868 29.4327 21.3263 30.8247 23.9658 30.8727C26.1733 30.9207 28.2369 29.7687 28.2369 28.0411C28.2369 26.4096 26.8933 25.7376 23.5338 25.5456C19.0708 25.2096 13.7437 23.5781 13.7437 18.2031C13.7437 12.732 19.4068 10.8125 23.7258 10.8125C27.4209 10.8125 30.2044 11.5325 32.9399 13.932L29.6764 17.7706Z" fill="#FFFFFF"></path><mask id="path-5-inside-1_288_3042" fill="#FFFFFF"><path d="M45.4154 38.9484L44.4069 35.1573L37.5074 5.61525C37.0029 3.45573 34.6783 2.26725 32.6325 3.12309L29.9344 4.25157C26.4607 5.70501 22.5482 5.69973 19.0783 4.23765L16.3485 3.08757C14.3421 2.24229 12.0516 3.36549 11.4914 5.46981L3.45573 35.6729L2.58405 38.9479C2.19285 40.4191 3.69813 41.7545 5.37237 41.4002C7.86597 40.8722 11.5101 40.9615 16.1767 43.3769C20.8552 45.7985 27.1485 45.7965 31.8232 43.3769C36.4893 40.9615 40.134 40.8722 42.6271 41.4002C44.3013 41.7549 45.8066 40.4196 45.4154 38.9484Z"></path></mask><path d="M45.4154 38.9484L44.4069 35.1573L37.5074 5.61525C37.0029 3.45573 34.6783 2.26725 32.6325 3.12309L29.9344 4.25157C26.4607 5.70501 22.5482 5.69973 19.0783 4.23765L16.3485 3.08757C14.3421 2.24229 12.0516 3.36549 11.4914 5.46981L3.45573 35.6729L2.58405 38.9479C2.19285 40.4191 3.69813 41.7545 5.37237 41.4002C7.86597 40.8722 11.5101 40.9615 16.1767 43.3769C20.8552 45.7985 27.1485 45.7965 31.8232 43.3769C36.4893 40.9615 40.134 40.8722 42.6271 41.4002C44.3013 41.7549 45.8066 40.4196 45.4154 38.9484Z" stroke="#1E1E1E" stroke-width="6" mask="url(#path-5-inside-1_288_3042)"></path></svg>
