<?xml version="1.0" encoding="UTF-8"?><svg id="Layer_2" xmlns="http://www.w3.org/2000/svg" viewBox="0 0 2048 1025"><defs><style>.cls-1{fill:none;}</style></defs><g id="middle_Image"><g><path class="cls-1" d="M708,750.18c-3.08,1.73-5.61,3.16-8.14,4.58,2.97,.77,5.96,1.54,9.65,2.5-.63-2.97-.99-4.64-1.51-7.08Z"/><path class="cls-1" d="M34,501.7c5.99,6.84,13.62,11.81,22.14,15.49,20.42,8.81,42.3,10.86,64.18,13.23,8.91,.97,17.51,4.99,26.2,7.78,23.11,7.4,46.22,14.79,69.27,22.36,7.57,2.49,14.89,5.74,22.44,8.3,8.03,2.72,16.3,4.75,24.28,7.61,7.65,2.75,14.94,6.53,22.6,9.25,29.14,10.32,57.77,22.2,88.09,28.92,9.84,2.18,18.43,7.17,27.39,11.6,12.62,6.24,26.24,10.41,39.3,15.78,15.66,6.45,32.09,11.26,46.17,21.19,5.43,3.83,10.98,7.48,16.39,11.32,10.59,7.51,22.61,11.47,35.24,13.08,9.39,1.19,17.05,5.79,24.46,10.68,7.42,4.9,13.76,11.4,20.87,16.8,7.27,5.53,14.52,11.26,22.46,15.7,13.13,7.35,25.17,16.05,33.77,28.31,7.2,10.27,12.76,21.69,19.06,32.6,1.39,2.41,2.84,4.79,5.54,6.99,0-4.38-.04-8.75,0-13.13,.09-7.98,.14-15.96,.38-23.93,.11-3.77,2.73-5.6,6.11-6.18,3.63-.62,5.57,1.61,6.57,4.76,1.78,5.56,.12,10.8-3.04,15.08-2.26,3.06-2.69,6.01-3.33,9.48-1.98,10.73-.04,18.49,13.49,19.52,0-.56,.16-1.82-.03-3.02-.4-2.42-1.61-4.87-1.37-7.19,.46-4.44,1.76-8.79,2.59-13.21,.7-3.7,2.08-6.02,6.35-3.58-.38,2.48-.8,5.13-1.4,9.05,1.17,.67,3.56,2.05,6.64,3.82,.07,.75,.25,2.82,.45,5.15,1.78,.45,4.12,1.02,6.43,1.65,2.36,.64,5.48,.88,4.76,4.43-.64,3.15-1.43,6.65-6.31,5.43-1.85-.47-3.92-.08-5.89-.08l-.57,1.72c1.63,.78,3.2,1.78,4.91,2.29,4.57,1.36,9.28,2.29,13.77,3.86,1.66,.58,2.87,2.47,4.29,3.77-1.35,1.23-2.7,2.45-4.44,4.04,3.62,2.81,7.46,2.34,11.43,.68,8.22,7.72,16.49,15.49,24.75,23.25,4.93-3.48,7.41-11.43,15.4-7.19,7.23,3.84,7.39,4.36,5.64,16.76,5.6-9.97,7.13-19.58,2.41-29.87-.98-2.14-.52-4.94-.75-7.43-.13-1.45-.11-2.96-.5-4.35-4.62-16.76,2.28-28.56,19.12-32.59,4.29-1.03,9.99,3.5,10.13,8.7,.14,5.07-.57,10.15-.97,16.24,1.47-.21,3.57-.26,5.49-.87,1.54-.49,2.75-2.02,4.29-2.47,2.06-.6,5.85-1.39,6.18-.72,1.75,3.45,10.33,2.01,6.24,8.91,5.49,2.48,6.39,5.57,3.4,10.41-7.36,11.89-18.96,16.25-32.59,12.23-1.26-.37-2.52-.71-4.29-1.2-4.83,10.02-9.61,19.92-14.38,29.82,.51,.35,1.02,.71,1.53,1.06,4.27-3.24,8.55-6.48,12.82-9.72,.91-.69,1.72-1.83,2.72-2.04,2.84-.58,3.78-2.35,4.64-4.94,2.86-8.6,10.37-12.11,18.5-8.84,1.28,.51,3.04,1.69,3.2,2.77,.63,4.16,3.73,6.35,5.91,9.38,1.91,2.66,2.19,7.09,1.77,10.57-.18,1.5-3.95,3.73-6.01,3.64-6.37-.26-9.05,4.76-13,7.95-.56,.45-.43,1.86-.48,2.84-.11,2.16,.42,4.53-.29,6.45-2.43,6.66-1.38,12.75,2.33,18.49,1.57,2.43,3.34,4.82,5.44,6.78,5.34,4.95,11.14,9.42,16.34,14.51,5.2,5.1,11.3,8.37,17.98,10.9,2.69,1.02,5.12,2.7,7.77,3.83,1.15,.49,2.61,.66,3.86,.46,8.63-1.35,16.14,1.86,23.66,5.4,6.6,3.11,13.12,6.91,20.11,8.56,11.94,2.81,24.18,3.81,35.37,9.88,3.96,2.15,9.7,.92,14.61,1.44,7.03,.75,14.03,1.87,21.08,2.48,3.32,.29,6.99,.51,10.01-.6,5.17-1.89,10.76-3.6,11.49-10.99,.28-2.79,2.87-5.99,7.3-5.03,.88,.19,2.6-1.03,3.11-2.02,2.26-4.38,4.24-4.87,8.51-1.48,3.15-5.18,8.45-6.64,13.69-5.71,12.04,2.15,20.6-4.7,29.59-10.39,8.02-5.07,16.57-8.33,25.86-10.03,5.5-1.01,10.91-2.54,16.36-3.84,8.55-2.05,17.01-4.72,25.68-6,7.16-1.06,13.62,2.34,19.33,6.57,7.5,5.57,14.2,11.9,19.49,19.75,4.32,6.41,8.87,7.55,16.45,5.49,15.22-4.12,30.56-7.82,45.68-12.26,20.38-5.99,40.61-12.52,60.9-18.81,1.27-.39,2.52-1,3.82-1.15,15.76-1.84,30.35-8.24,45.7-11.64,8.75-1.94,17.67-3.37,26.58-4.35,10.69-1.17,21.47-1.51,32.2-2.42,3.94-.34,7.84-1.91,11.75-1.87,15.53,.18,30.59,3.49,45.6,7.31,8.18,2.09,16.66,3,25,4.43,.12-.5,.25-1,.37-1.5-7.54-3.1-15.07-6.2-23.46-9.66q3.92-2.17,20.83,4.04c-.65-7.78-1.3-15.53-1.95-23.28,.28-.07,.55-.14,.83-.2,.72,3.21,1.63,6.39,2.13,9.63,1.5,9.69,8.67,17.39,18.3,18.94-1.28-4.75-2.08-9.49-3.84-13.83-2.65-6.54,.65-12,2.38-17.74,.7-2.31,2.22-4.38,3.4-6.55,0-.08-.02-.17-.02-.25,0,0,0,0,0,0,.16-.44,.32-.88,.48-1.33,1.64-6.3,3.27-12.61,4.91-18.91,.57,.17,1.14,.35,1.72,.52-2.21,6.13-4.42,12.26-6.62,18.39-.12,.48-.25,.95-.37,1.43-.03,.05-.06,.1-.09,.15,0,.09,0,.17-.03,.24-4.02,9-3.08,16.6,5.98,22.11,4.49,2.73,8.82,5.71,13.23,8.58,.37-.29,.75-.57,1.12-.86-.52-1.35-1.05-2.69-1.56-4.05-1.32-3.52-3.42-6.96-3.79-10.57-1.49-14.36-3.37-28.75-1.54-43.25,.48-3.75-2-5.61-5.19-4.56-5.5,1.81-7.56-1.63-8.71-5.42-1.24-4.05-1.3-8.46-1.92-13.02-3.47,1.73-6.96,3.47-10.45,5.21-3.92,1.94-7.89,1.49-10.46-1.76-2.72-3.46-.08-6.96,2.46-9.19,4.13-3.62,8.87-6.54,13.86-10.11-.15-.44-.59-1.82-1.08-3.18-.84-2.3-2.62-5.07,.52-6.55,2.46-1.16,5.71-1.98,8.23-1.37,3.55,.86,6.74,3.18,10.31,5,1.48-4.55,2.53-8.54,4.1-12.32,.83-1.98,2.49-4.97,3.91-5.04,2.22-.12,5.06,1.36,6.68,3.07,1.95,2.06,2.9,5.08,4.23,7.57,5.84-.67,10.49-8.3,16.93-2.29,6.62,6.18,2.14,11.86-.71,15.94,4.51,6.09,8.41,11.12,11.94,16.39,.46,.68-.95,3.77-1.45,3.76-3.84-.07-7.71-.44-11.49-1.11-2.35-.42-5.24-2.63-6.36,.74-.65,1.95,.65,4.78,1.61,6.97,1.17,2.65,3.55,4.88,4.26,7.6,.91,3.48-.89,6.21-4.77,6.75-4.65,.64-9.33,1.1-14.48,1.69-2.57,7.51,4.98,22.81,14.27,24.15-1.56-4.56-2.88-8.41-4.19-12.27,.2-.1,.41-.19,.61-.29,2.77,5.43,5.54,10.85,8.84,17.3,1.88-3.03,3.36-5.13,4.54-7.38,2.74-5.22,6.69-9.16,12.14-11.38,2.6-1.06,3.47-2.66,3.28-5.35-.86-11.71,2.11-22.71,6-33.62,1.36-3.82,1.83-8.06,2.08-12.14,.34-5.57,.09-11.17,.09-16.94-.53-.08-1.33-.48-1.78-.23-6.2,3.4-11.19,1.17-16.8-2.22-5.34-3.24-9.85-8.86-9.18-15.08,.61-5.71,.73-11.57,2.22-17.05,.9-3.32,3.95-8.48,6.11-8.53,4.15-.08,9.31,1.06,11.92,5.82,1.35,2.46,2.94,4.78,4.39,7.11,6.67-2.19,7.8-7.67,8.86-13.24,1.31-6.84,4.26-11.25,12.48-10.31,2.46,.28,4.9-2.16,8.16-.28,3.95,2.28,5.95,5.42,6.24,9.55,.36,5.21,.95,10.63-3.14,15.02-.64,.68-.85,1.76-1.67,3.56,2.81,.2,5.14,.45,7.48,.51,3.93,.11,6.24,2.2,5.6,5.95-.59,3.46-1.5,7.58-3.79,9.89-4.46,4.48-9.84,8.12-15.14,11.65-4.23,2.82-8.88,4.07-13.38-1.23-1.84,8.88-3.37,16.94-5.21,24.94-1.3,5.65-2.95,11.23-4.58,16.8-1.88,6.45-2.47,12.9-.88,20.44,5.8-11.18,11.16-21.54,16.72-32.26,9.35,13.39,3.67,28.46,5.33,43.62,6.14-2.09,11.82-3.94,17.42-6.02,.87-.32,1.5-1.65,1.97-2.64,2.3-4.8,4.41-9.68,6.79-14.44,.84-1.68,2.24-3.09,3.38-4.63,.45,.18,.9,.37,1.35,.55-1.22,4.95-2.11,10.01-3.75,14.81-2.09,6.13-4.03,12.54-7.45,17.92-3.08,4.84-7.64,9.13-12.41,12.38-3.39,2.31-3.6,3.74-1.53,6.54,.2,.26,.46,.48,.69,.72,8.53,8.74,10.58,8.88,18.5-1.14,4.39-5.56,7.56-12.1,11.53-18.61-1.57,5.02-2.42,10.08-4.67,14.41-3.35,6.42-1.08,15.23,7.48,14.78,1.66-3.53,3.59-6.98,4.81-10.66,.35-1.07-1.01-3.2-2.17-4.17-2.97-2.49-3.73-4.27-.54-7.57,5.7-5.9,11.13-12.22,10.8-21.56,.54,.19,1.08,.38,1.62,.56-1.27,6.88-2.55,13.76-3.94,21.26,15.06-13.72,31.6-23.26,50.71-27.96,.4,.5,.79,1.01,1.19,1.51-20.82,18.18-41.64,36.36-63.18,55.16,15.61,2.95,27.1-3.82,38.42-12.13-5.83,10.81-23.37,18.12-36.23,15.65-1.78-.34-4.23,.25-5.69,1.33-3.31,2.46-6.46,5.26-9.18,8.36-2.61,2.97-4.59,6.5-7.36,10.52,10.97,.46,21.46,1.27,31.95,1.25,14.78-.03,29.56-1.14,44.32-.86,6.68,.13,13.27,2.78,19.97,3.77,10.31,1.52,20.88,1.77,30.99,4.09,10,2.29,21.01,1.05,29.92,7.72,.7,.52,1.91,.6,2.85,.53,13.45-.97,26.06,3.13,38.58,6.94,10.96,3.33,21.77,7.43,30.51,15.42,3.55,3.24,7.5,6.07,10.83,9.51,3.97,4.1,8.69,6.81,13.41,9.88,8.78,5.71,18.43,9.01,27.68,13.43,.36,.17,.72,.36,1.08,.55h122.24V34H34V501.7Zm665.21,235.48c3.43-2.61,7.6-4.49,11.72-5.78,1.41-.44,3.69,1.92,5.57,3-.99,1.65-1.97,3.29-2.67,4.46,.93,1.6,3.32,4.14,2.8,5.1-1.2,2.21-3.81,3.66-6.14,5.67,.09,.27,.56,1.74,1.19,3.68,1.04-.89,1.77-1.52,2.6-2.23,2.5,7.76-2.78,16.63-11.38,19.17-.99-5.22-1.14-10.62-3.25-15.55,0,0,0,0,0,0-5.19-4.56-5.72-13.52-.44-17.53Z"/><path class="cls-1" d="M1607.08,852.05c-5.87,3.11-9.01,7.54-8.41,11.55,6.82-1.68,9.89-5.7,8.41-11.55Z"/><path d="M1498.59,857.83c-.16,.44-.32,.88-.48,1.33,0,0,0,0,0,0,0,.08,.01,.17,.02,.25,.03-.05,.06-.1,.09-.15,.12-.48,.25-.95,.37-1.43Z"/><path d="M699.65,754.71s0,0,0,0c2.11,4.93,2.26,10.33,3.25,15.55,8.6-2.54,13.88-11.42,11.38-19.17-.83,.71-1.56,1.34-2.6,2.23-.63-1.95-1.1-3.41-1.19-3.68,2.32-2,4.94-3.45,6.14-5.67,.52-.96-1.86-3.5-2.8-5.1,.7-1.16,1.68-2.81,2.67-4.46-1.88-1.08-4.16-3.44-5.57-3-4.13,1.29-8.3,3.17-11.72,5.78-5.28,4.01-4.75,12.97,.44,17.53Zm8.35-4.53c.52,2.44,.87,4.11,1.51,7.08-3.69-.95-6.67-1.72-9.65-2.5,2.53-1.42,5.06-2.85,8.14-4.58Z"/><path d="M1503.5,838.92c-1.64,6.3-3.27,12.61-4.91,18.91,2.2-6.13,4.41-12.26,6.62-18.39-.57-.17-1.14-.35-1.72-.52Z"/><path d="M0,0V1024H1v1H1937c.1-.37,.16-.69,.2-1h110.8V0H0ZM2014,990h-122.24c-.36-.18-.72-.37-1.08-.55-9.24-4.43-18.9-7.72-27.68-13.43-4.72-3.07-9.45-5.78-13.41-9.88-3.33-3.44-7.28-6.27-10.83-9.51-8.74-7.99-19.56-12.08-30.51-15.42-12.52-3.81-25.13-7.91-38.58-6.94-.94,.07-2.15-.01-2.85-.53-8.9-6.67-19.91-5.43-29.92-7.72-10.11-2.31-20.68-2.57-30.99-4.09-6.71-.99-13.3-3.64-19.97-3.77-14.76-.28-29.55,.83-44.32,.86-10.49,.02-20.98-.79-31.95-1.25,2.77-4.03,4.75-7.55,7.36-10.52,2.72-3.1,5.87-5.9,9.18-8.36,1.46-1.08,3.91-1.67,5.69-1.33,12.86,2.47,30.4-4.85,36.23-15.65-11.32,8.31-22.81,15.08-38.42,12.13,21.54-18.8,42.36-36.98,63.18-55.16-.4-.5-.79-1.01-1.19-1.51-19.11,4.71-35.65,14.25-50.71,27.96,1.39-7.5,2.66-14.38,3.94-21.26-.54-.19-1.08-.38-1.62-.56,.34,9.34-5.1,15.66-10.8,21.56-3.19,3.3-2.43,5.08,.54,7.57,1.15,.96,2.52,3.1,2.17,4.17-1.22,3.68-3.15,7.12-4.81,10.66-8.55,.45-10.83-8.36-7.48-14.78,2.26-4.33,3.11-9.39,4.67-14.41-3.97,6.51-7.13,13.05-11.53,18.61-7.92,10.02-9.97,9.88-18.5,1.14-.23-.24-.49-.45-.69-.72-2.08-2.8-1.86-4.23,1.53-6.54,4.77-3.26,9.33-7.54,12.41-12.38,3.43-5.38,5.36-11.79,7.45-17.92,1.64-4.8,2.53-9.86,3.75-14.81-.45-.18-.9-.37-1.35-.55-1.14,1.54-2.54,2.94-3.38,4.63-2.38,4.76-4.49,9.64-6.79,14.44-.47,.99-1.1,2.32-1.97,2.64-5.59,2.08-11.27,3.93-17.42,6.02-1.66-15.15,4.02-30.22-5.33-43.62-5.56,10.72-10.92,21.08-16.72,32.26-1.6-7.54-1.01-14,.88-20.44,1.63-5.57,3.28-11.15,4.58-16.8,1.84-8,3.37-16.07,5.21-24.94,4.5,5.3,9.15,4.05,13.38,1.23,5.3-3.54,10.68-7.18,15.14-11.65,2.3-2.3,3.2-6.43,3.79-9.89,.64-3.75-1.67-5.84-5.6-5.95-2.34-.06-4.67-.31-7.48-.51,.82-1.8,1.03-2.88,1.67-3.56,4.1-4.39,3.51-9.81,3.14-15.02-.29-4.13-2.29-7.27-6.24-9.55-3.25-1.88-5.7,.56-8.16,.28-8.22-.94-11.17,3.48-12.48,10.31-1.06,5.57-2.19,11.05-8.86,13.24-1.45-2.34-3.04-4.66-4.39-7.11-2.61-4.77-7.76-5.91-11.92-5.82-2.17,.04-5.21,5.2-6.11,8.53-1.49,5.48-1.61,11.34-2.22,17.05-.66,6.22,3.84,11.84,9.18,15.08,5.61,3.4,10.6,5.63,16.8,2.22,.45-.25,1.25,.15,1.78,.23,0,5.77,.26,11.37-.09,16.94-.25,4.08-.72,8.32-2.08,12.14-3.89,10.91-6.86,21.91-6,33.62,.2,2.7-.67,4.29-3.28,5.35-5.45,2.22-9.4,6.16-12.14,11.38-1.18,2.25-2.66,4.35-4.54,7.38-3.3-6.45-6.07-11.88-8.84-17.3-.2,.1-.41,.19-.61,.29,1.32,3.86,2.64,7.71,4.19,12.27-9.29-1.34-16.84-16.64-14.27-24.15,5.15-.59,9.83-1.04,14.48-1.69,3.88-.54,5.69-3.27,4.77-6.75-.71-2.71-3.09-4.94-4.26-7.6-.97-2.19-2.26-5.02-1.61-6.97,1.12-3.37,4.01-1.15,6.36-.74,3.79,.67,7.65,1.04,11.49,1.11,.51,0,1.91-3.08,1.45-3.76-3.54-5.27-7.43-10.3-11.94-16.39,2.84-4.08,7.33-9.76,.71-15.94-6.44-6.01-11.09,1.62-16.93,2.29-1.33-2.49-2.28-5.51-4.23-7.57-1.62-1.71-4.47-3.18-6.68-3.07-1.42,.07-3.08,3.06-3.91,5.04-1.57,3.78-2.63,7.78-4.1,12.32-3.58-1.82-6.77-4.14-10.31-5-2.52-.61-5.77,.2-8.23,1.37-3.13,1.48-1.36,4.24-.52,6.55,.5,1.36,.94,2.75,1.08,3.18-4.98,3.57-9.73,6.49-13.86,10.11-2.54,2.23-5.19,5.73-2.46,9.19,2.56,3.26,6.54,3.71,10.46,1.76,3.49-1.73,6.98-3.48,10.45-5.21,.62,4.56,.68,8.96,1.92,13.02,1.16,3.79,3.21,7.23,8.71,5.42,3.19-1.05,5.67,.81,5.19,4.56-1.84,14.51,.05,28.89,1.54,43.25,.37,3.62,2.48,7.06,3.79,10.57,.51,1.35,1.04,2.7,1.56,4.05-.37,.29-.75,.57-1.12,.86-4.4-2.87-8.74-5.85-13.23-8.58-9.06-5.51-10.01-13.11-5.98-22.11,.03-.07,.03-.16,.03-.24-1.18,2.17-2.7,4.23-3.4,6.55-1.73,5.74-5.03,11.21-2.38,17.74,1.77,4.35,2.56,9.08,3.84,13.83-9.63-1.55-16.81-9.25-18.3-18.94-.5-3.24-1.41-6.42-2.13-9.63-.28,.07-.55,.14-.83,.2,.65,7.75,1.3,15.5,1.95,23.28q-16.91-6.22-20.83-4.04c8.39,3.46,15.93,6.56,23.46,9.66-.12,.5-.25,1-.37,1.5-8.34-1.44-16.82-2.35-25-4.43-15.01-3.83-30.06-7.13-45.6-7.31-3.91-.05-7.8,1.53-11.75,1.87-10.72,.92-21.5,1.25-32.2,2.42-8.91,.98-17.83,2.41-26.58,4.35-15.34,3.4-29.94,9.8-45.7,11.64-1.3,.15-2.55,.75-3.82,1.15-20.29,6.3-40.52,12.82-60.9,18.81-15.12,4.44-30.46,8.14-45.68,12.26-7.58,2.05-12.13,.92-16.45-5.49-5.29-7.85-11.99-14.19-19.49-19.75-5.71-4.24-12.18-7.63-19.33-6.57-8.67,1.28-17.13,3.94-25.68,6-5.45,1.31-10.86,2.84-16.36,3.84-9.29,1.7-17.85,4.96-25.86,10.03-9,5.69-17.56,12.54-29.59,10.39-5.24-.94-10.53,.52-13.69,5.71-4.27-3.39-6.25-2.9-8.51,1.48-.51,.99-2.23,2.21-3.11,2.02-4.43-.97-7.02,2.23-7.3,5.03-.74,7.39-6.32,9.1-11.49,10.99-3.02,1.1-6.69,.88-10.01,.6-7.04-.61-14.04-1.73-21.08-2.48-4.91-.52-10.65,.71-14.61-1.44-11.19-6.07-23.44-7.07-35.37-9.88-6.99-1.65-13.51-5.45-20.11-8.56-7.52-3.55-15.03-6.75-23.66-5.4-1.24,.19-2.7,.03-3.86-.46-2.65-1.13-5.08-2.81-7.77-3.83-6.69-2.53-12.78-5.8-17.98-10.9-5.19-5.1-11-9.56-16.34-14.51-2.1-1.95-3.88-4.35-5.44-6.78-3.71-5.74-4.76-11.83-2.33-18.49,.7-1.93,.18-4.29,.29-6.45,.05-.97-.08-2.38,.48-2.84,3.95-3.19,6.63-8.21,13-7.95,2.06,.08,5.83-2.14,6.01-3.64,.41-3.48,.14-7.91-1.77-10.57-2.18-3.03-5.29-5.22-5.91-9.38-.16-1.08-1.92-2.26-3.2-2.77-8.13-3.27-15.63,.24-18.5,8.84-.86,2.59-1.8,4.36-4.64,4.94-1,.2-1.81,1.34-2.72,2.04-4.27,3.24-8.54,6.48-12.82,9.72-.51-.35-1.02-.71-1.53-1.06,4.77-9.9,9.55-19.79,14.38-29.82,1.77,.49,3.03,.83,4.29,1.2,13.63,4.02,25.23-.33,32.59-12.23,2.99-4.84,2.1-7.93-3.4-10.41,4.08-6.91-4.49-5.46-6.24-8.91-.34-.67-4.13,.12-6.18,.72-1.54,.45-2.76,1.98-4.29,2.47-1.92,.62-4.02,.66-5.49,.87,.4-6.09,1.1-11.17,.97-16.24-.14-5.19-5.84-9.72-10.13-8.7-16.84,4.04-23.74,15.83-19.12,32.59,.38,1.39,.37,2.9,.5,4.35,.23,2.49-.23,5.29,.75,7.43,4.72,10.29,3.19,19.91-2.41,29.87,1.75-12.4,1.59-12.93-5.64-16.76-7.99-4.24-10.47,3.71-15.4,7.19-8.26-7.76-16.53-15.52-24.75-23.25-3.97,1.66-7.82,2.13-11.43-.68,1.75-1.59,3.09-2.82,4.44-4.04-1.42-1.29-2.62-3.19-4.29-3.77-4.49-1.57-9.2-2.5-13.77-3.86-1.71-.51-3.28-1.51-4.91-2.29l.57-1.72c1.97,0,4.04-.39,5.89,.08,4.88,1.23,5.67-2.27,6.31-5.43,.73-3.55-2.39-3.79-4.76-4.43-2.31-.63-4.65-1.19-6.43-1.65-.2-2.33-.38-4.4-.45-5.15-3.07-1.77-5.47-3.15-6.64-3.82,.61-3.92,1.02-6.57,1.4-9.05-4.27-2.44-5.66-.12-6.35,3.58-.83,4.41-2.13,8.76-2.59,13.21-.24,2.32,.97,4.77,1.37,7.19,.2,1.2,.03,2.46,.03,3.02-13.53-1.03-15.47-8.79-13.49-19.52,.64-3.47,1.07-6.42,3.33-9.48,3.16-4.28,4.82-9.52,3.04-15.08-1-3.15-2.95-5.37-6.57-4.76-3.38,.58-5.99,2.41-6.11,6.18-.24,7.97-.29,15.96-.38,23.93-.05,4.38,0,8.75,0,13.13-2.7-2.2-4.14-4.58-5.54-6.99-6.3-10.91-11.85-22.33-19.06-32.6-8.61-12.27-20.64-20.96-33.77-28.31-7.93-4.44-15.19-10.17-22.46-15.7-7.11-5.41-13.45-11.91-20.87-16.8-7.4-4.89-15.07-9.48-24.46-10.68-12.63-1.61-24.65-5.57-35.24-13.08-5.42-3.84-10.96-7.5-16.39-11.32-14.08-9.93-30.5-14.74-46.17-21.19-13.06-5.38-26.69-9.54-39.3-15.78-8.96-4.43-17.55-9.42-27.39-11.6-30.33-6.72-58.96-18.6-88.09-28.92-7.66-2.71-14.95-6.5-22.6-9.25-7.97-2.86-16.25-4.89-24.28-7.61-7.55-2.56-14.87-5.81-22.44-8.3-23.05-7.58-46.16-14.97-69.27-22.36-8.69-2.78-17.29-6.81-26.2-7.78-21.88-2.37-43.76-4.41-64.18-13.23-8.52-3.68-16.15-8.65-22.14-15.49V34H2014V990Zm-406.92-137.95c1.48,5.85-1.59,9.87-8.41,11.55-.6-4.01,2.54-8.44,8.41-11.55Z"/></g></g></svg>