<?xml version="1.0" encoding="UTF-8"?><svg id="Layer_2" xmlns="http://www.w3.org/2000/svg" viewBox="0 0 2048 1026"><defs><style>.cls-1{fill:none;}.cls-2{fill:#fff;}</style></defs><g id="middle_2_Image"><g><path class="cls-1" d="M34,142.56c660,0,1320,0,1980,.14V34H34v108.56Z"/><path class="cls-2" d="M34,371.53c3.43,.06,6.85,.08,10.27-.02,17.91-.51,35.8-2,53.71-2.38,13.75-.29,27.53,.62,41.29,.79,13.12,.16,26.26-.38,39.36,.22,6.5,.3,12.91,2.45,19.35,3.8,2.27,.47,4.56,1.68,6.75,1.49,8.92-.79,17.78-2.42,26.7-2.92,10.92-.62,21.88-.52,32.82-.52,4.87,0,9.75,.74,14.62,.77,4.14,.02,8.29-.78,12.44-.74,18.64,.21,37.28,.54,55.92,.97,3.63,.08,7.24,.98,10.88,1.21,10.11,.63,20.33,2.18,30.3,1.23,5.87-.55,11.3-.7,17.09,.1,4.67,.65,9.57-.27,14.36-.5,1.31-.06,2.62-.13,3.92-.25,6.86-.65,13.72-1.33,20.59-1.97,4.9-.46,9.85-1.54,14.68-1.16,6.91,.54,13.75,2.1,20.59,3.34,2.89,.52,5.8,1.11,8.56,2.06,5.4,1.86,10.65,3.67,16.51,1.67,1.92-.65,4.24-.23,6.37-.15,5.93,.2,11.86,.47,17.78,.73,2.96,.13,6.1-.28,8.84,.56,6.49,2,12.5,3.82,19.81,3.54,16.39-.64,32.87,1.07,49.32,1.62,4.56,.15,9.14-.45,13.72-.56,2.28-.05,4.74-.28,6.81,.44,5.94,2.08,11.68,4.67,18.2,2.38,.98-.34,2.54-.18,3.36,.41,3.22,2.3,5.16,.74,7.65-1.49,4.62-4.13,13.3-4.23,16.88,.25,3.08,3.85,6.23,3.71,10.43,3.37,9.04-.72,18.56-3.87,26.62,3.47,.33,.3,.94,.43,1.42,.43,10.23-.01,20.47-.3,30.7,0,7.37,.21,16-.99,21.73,2.39,6.76,3.99,13.11,6.9,20.77,8.17,4.65,.77,8.78,2.17,13.26-.63,1.44-.9,4.03-.74,5.8-.18,7,2.23,13.92,4.19,21.43,2.64,1.55-.32,3.65,.5,5.08,1.43,5.5,3.57,7.04,3.31,11.86-1.42,1.8-1.77,4.27-3.17,6.69-3.93,3.39-1.07,6.99-1.6,10.54-1.92,2.04-.18,5.38-.19,6.04,.94,4.06,7.02,10.89,6.73,17.43,7.52,3.62,.43,6.85,.51,9.12-3.28,.82-1.37,2.89-2.55,4.53-2.76,10.26-1.36,20.06-1.13,28.77,6.15,3.46,2.89,9.04,6.1,12.78,5.27,9.59-2.14,17.68,.42,26.07,4.01,4.68,2,9.58,4.13,14.55,4.65,8.74,.91,18.31-3.82,25.84,4.37,.09,.1,.32,.06,.49,.08,4.28,.59,8.54,1.24,12.83,1.75,8.91,1.05,18.12,.97,26.66,3.34,8.39,2.33,15.28-.95,22.76-2.55,2.61-.56,5.4-1.12,8-.8,9.7,1.2,19.33,2.88,29.02,4.16,5.71,.75,11.48,1.45,17.23,1.5,4.85,.05,9.71-.85,14.56-1.36,3.84-.41,7.68-.85,11.52-1.31,1.07-.13,2.66-.06,3.09-.7,3.07-4.49,7.89-3.46,12.17-4.33,3.66-.74,7.52-1.55,10.67-3.39,2.75-1.61,4.93-2.3,8.22-2.02,4.59,.39,9.45,.34,12.46-4.97,1.42-2.51,4.44-5.04,7.17-5.67,4.92-1.12,7.72-3.95,10.31-7.85,3.83-5.77,13.05-9.49,19.33-7.42,3.89,1.29,5.59,.15,7.6-2.97,5.19-8.01,18.81-10.86,26.67-5.64,2.28,1.51,3.99,3.86,5.04,4.91,4.32,0,8.22-1.13,10.86,.22,6.84,3.49,12.84,2.83,18.74-1.69,5-3.84,10.8-6.95,16.71-9.17,4.04-1.52,8.89-.78,13.34-1.37,9.25-1.21,18.48-2.06,23.7-12.01,2.11-4.03,6.65-6.35,11.91-5.98,3.1,.22,6.22,.1,9.34,.09,1.21-.13,2.41-.26,3.6-.44,1.62-.24,3.29-.38,4.85-.71,3.18-1.44,5.5-4.21,6.98-8.33,.54-1.51,1.37-3.31,2.62-4.09,7.87-4.92,16.29-9.36,25.77-7.03,.68,.17,1.35,.3,2.02,.42,4.19-.13,8.38-.26,12.55-.62,16.52-1.41,33-3.21,49.52-4.57,1.94-.16,3.84-.42,5.72-.76,1.11-.27,2.22-.55,3.32-.87,12.83-3.75,24.88-10.16,37.3-15.34,.87-.36,1.75-.73,2.62-1.09,9.43-4.18,19.05-7.45,29.7-6.04,5.9,.78,11.63,.99,17.28,.19,3.06-.58,6.09-1.35,9.09-2.24,4.14-1.42,8.25-2.87,12.33-4.41,8.98-3.7,17.57-8.35,26.33-12.61,13.54-7.86,27.93-13.41,44.21-12.3,4.27,.29,8.55,.55,12.82,.8,6.42-.16,12.83-.19,19.22,.18,9.25,.54,18.39,3.28,27.62,3.58,6.43,.21,12.9-2.58,19.42-3.07,5.66-.42,8.41-3.05,9.4-8.2,.14-.73,.32-1.47,.52-2.21-.25-4.37-.6-8.76-.27-13.09,.11-1.54,.29-3.01,.49-4.46-.13-2.64,.3-5.12,1.55-7.51,1.75-6.11,4.55-11.14,8.6-15.15,2.94-3.83,6.97-6.66,11.13-9.13,15.47-9.21,32.51-14.5,50.06-17.98,5.43-1.08,11.22-.32,16.84-.55,8.46-.35,17.04-1.95,25.35-1.02,11.88,1.33,23.14,.34,34.36-2.81,16.17-8.39,33.73-10.74,51.59-7.81,1.49,.02,2.98,.04,4.47,.08,3.72,.08,7.43,.11,11.15,.13,9.86-1.26,19.33-4.43,29.48-4.72,0,0,0-.02,0-.02-.03-1.41,.14-2.71,.46-3.92-.05-3.75,1.56-6.69,5.14-8.56,.28-.15,.55-.29,.82-.44,.62-.59,1.25-1.16,1.9-1.74,.23-.21,.49-.41,.76-.62v-30.18c-660-.13-1320-.14-1980-.14v228.97Z"/><path d="M0,0V1025H1v1h2047V137.5c0-.78,0-1.56,0-2.34V0H0ZM2014,142.7v30.18c-.26,.21-.52,.42-.76,.62-.65,.57-1.28,1.15-1.9,1.74-.27,.14-.54,.29-.82,.44-3.58,1.87-5.19,4.81-5.14,8.56-.32,1.21-.49,2.51-.46,3.92,0,0,0,.02,0,.02-10.15,.29-19.61,3.47-29.48,4.72-3.72-.02-7.43-.05-11.15-.13-1.49-.03-2.98-.06-4.47-.08-17.86-2.93-35.42-.58-51.59,7.81-11.22,3.15-22.48,4.14-34.36,2.81-8.31-.93-16.89,.67-25.35,1.02-5.62,.23-11.4-.52-16.84,.55-17.54,3.48-34.59,8.77-50.06,17.98-4.16,2.48-8.18,5.3-11.13,9.13-4.06,4-6.86,9.04-8.6,15.15-1.25,2.39-1.67,4.88-1.55,7.51-.2,1.44-.37,2.92-.49,4.46-.32,4.33,.02,8.72,.27,13.09-.2,.75-.38,1.49-.52,2.21-.99,5.15-3.74,7.78-9.4,8.2-6.52,.48-12.99,3.28-19.42,3.07-9.24-.3-18.37-3.04-27.62-3.58-6.39-.37-12.8-.34-19.22-.18-4.27-.25-8.55-.51-12.82-.8-16.28-1.11-30.68,4.44-44.21,12.3-8.76,4.26-17.35,8.91-26.33,12.61-4.08,1.55-8.2,3-12.33,4.41-3,.89-6.03,1.66-9.09,2.24-5.64,.8-11.38,.59-17.28-.19-10.65-1.41-20.27,1.86-29.7,6.04-.88,.36-1.75,.72-2.62,1.09-12.42,5.19-24.47,11.6-37.3,15.34-1.1,.32-2.21,.61-3.32,.87-1.88,.34-3.78,.6-5.72,.76-16.52,1.37-33,3.17-49.52,4.57-4.17,.36-8.36,.49-12.55,.62-.67-.12-1.34-.25-2.02-.42-9.49-2.33-17.91,2.11-25.77,7.03-1.25,.78-2.07,2.59-2.62,4.09-1.48,4.12-3.8,6.89-6.98,8.33-1.56,.32-3.23,.47-4.85,.71-1.19,.17-2.39,.31-3.6,.44-3.12,.01-6.24,.13-9.34-.09-5.26-.37-9.79,1.95-11.91,5.98-5.22,9.96-14.45,10.8-23.7,12.01-4.45,.58-9.3-.15-13.34,1.37-5.9,2.22-11.71,5.34-16.71,9.17-5.9,4.53-11.91,5.19-18.74,1.69-2.64-1.35-6.55-.22-10.86-.22-1.05-1.05-2.77-3.4-5.04-4.91-7.86-5.22-21.47-2.38-26.67,5.64-2.02,3.11-3.71,4.25-7.6,2.97-6.28-2.07-15.5,1.65-19.33,7.42-2.59,3.9-5.38,6.73-10.31,7.85-2.73,.62-5.75,3.16-7.17,5.67-3.01,5.31-7.87,5.36-12.46,4.97-3.29-.28-5.47,.4-8.22,2.02-3.15,1.85-7.01,2.65-10.67,3.39-4.29,.87-9.1-.16-12.17,4.33-.44,.64-2.02,.57-3.09,.7-3.84,.47-7.68,.91-11.52,1.31-4.85,.51-9.71,1.41-14.56,1.36-5.75-.05-11.51-.75-17.23-1.5-9.69-1.28-19.32-2.96-29.02-4.16-2.6-.32-5.38,.24-8,.8-7.49,1.6-14.37,4.88-22.76,2.55-8.54-2.37-17.75-2.29-26.66-3.34-4.29-.51-8.55-1.16-12.83-1.75-.17-.02-.4,.01-.49-.08-7.53-8.18-17.11-3.45-25.84-4.37-4.96-.52-9.87-2.65-14.55-4.65-8.39-3.59-16.47-6.14-26.07-4.01-3.74,.83-9.31-2.38-12.78-5.27-8.71-7.28-18.51-7.51-28.77-6.15-1.64,.22-3.71,1.4-4.53,2.76-2.27,3.79-5.5,3.71-9.12,3.28-6.54-.78-13.37-.5-17.43-7.52-.65-1.13-4-1.12-6.04-.94-3.55,.32-7.16,.85-10.54,1.92-2.42,.76-4.89,2.16-6.69,3.93-4.82,4.74-6.36,4.99-11.86,1.42-1.43-.93-3.53-1.75-5.08-1.43-7.51,1.55-14.42-.42-21.43-2.64-1.78-.57-4.37-.72-5.8,.18-4.48,2.8-8.62,1.41-13.26,.63-7.66-1.28-14.01-4.19-20.77-8.17-5.74-3.38-14.36-2.18-21.73-2.39-10.22-.29-20.46,0-30.7,0-.48,0-1.08-.12-1.42-.43-8.06-7.33-17.58-4.19-26.62-3.47-4.2,.34-7.35,.48-10.43-3.37-3.59-4.48-12.27-4.38-16.88-.25-2.49,2.23-4.43,3.79-7.65,1.49-.82-.59-2.39-.75-3.36-.41-6.52,2.29-12.26-.3-18.2-2.38-2.07-.73-4.53-.5-6.81-.44-4.58,.11-9.16,.71-13.72,.56-16.45-.56-32.93-2.26-49.32-1.62-7.31,.28-13.32-1.53-19.81-3.54-2.74-.85-5.88-.43-8.84-.56-5.93-.26-11.85-.53-17.78-.73-2.13-.07-4.45-.5-6.37,.15-5.86,1.99-11.11,.19-16.51-1.67-2.76-.95-5.67-1.54-8.56-2.06-6.85-1.24-13.68-2.8-20.59-3.34-4.83-.38-9.79,.7-14.68,1.16-6.86,.64-13.72,1.32-20.59,1.97-1.3,.12-2.61,.19-3.92,.25-4.79,.23-9.69,1.15-14.36,.5-5.79-.81-11.23-.66-17.09-.1-9.97,.94-20.19-.6-30.3-1.23-3.64-.23-7.24-1.12-10.88-1.21-18.64-.43-37.28-.76-55.92-.97-4.14-.05-8.29,.76-12.44,.74-4.88-.03-9.75-.76-14.62-.77-10.94,0-21.91-.1-32.82,.52-8.93,.5-17.78,2.13-26.7,2.92-2.19,.19-4.49-1.01-6.75-1.49-6.44-1.35-12.86-3.5-19.35-3.8-13.09-.6-26.24-.06-39.36-.22-13.77-.16-27.54-1.08-41.29-.79-17.91,.37-35.8,1.86-53.71,2.38-3.42,.1-6.85,.08-10.27,.02V34H2014v108.7Z"/></g></g></svg>