<?xml version="1.0" encoding="UTF-8"?><svg id="Layer_2" xmlns="http://www.w3.org/2000/svg" viewBox="0 0 2048 1025"><defs><style>.cls-1{fill:none;}.cls-2{fill:#fff;}</style></defs><g id="middle_Image"><g><path class="cls-1" d="M2014,142.7V34H34v108.56c660,0,1320,0,1980,.14Z"/><path class="cls-2" d="M34,473.88c4.22,.1,8.53,.07,11.66,1.98,6.15,3.75,12.16,4.58,18.81,4.3,6.64-.28,13.35-1.39,19.89-.76,8.16,.78,16.43,2.27,24.2,4.82,4.57,1.5,8.73,3.9,13.75,4.67,4.43,.69,8.49,3.5,12.88,4.85,3.76,1.16,8.05,2.84,11.57,2.02,4.49-1.05,8.14-.34,12.4,.58,5.33,1.16,11.04,1.18,16.51,.76,3.19-.25,6.2-2.39,9.34-3.56,2.18-.81,4.84-.88,6.58-2.21,7.22-5.5,15.45-4.94,23.76-4.9,4.51,.02,9.76,1.18,12.36-4.6,.4-.89,1.73-1.71,2.76-1.92,4.7-.93,9.43-1.66,14.17-2.38,.56-.08,1.44,.22,1.76,.65,4.13,5.46,8.99,3.43,13.96,1.57,6.84-2.57,13.69-5.13,20.63-7.37,3.98-1.29,8.19-2.51,10.32,3.31,.36,.98,3.09,1.57,4.7,1.5,1.55-.06,3.07-1.16,4.58-1.86,7.33-3.41,11.58-2.55,17.19,3.29,.84,.87,2.12,1.81,3.24,1.85,6.3,.24,12.67-.25,18.91,.41,10.71,1.13,22.05,1.11,31.88,4.84,20.43,7.75,41.43,9.85,62.64,8.87,23.73-1.1,47.28-.13,70.81,2.25,15.36,1.55,30.64,3.97,45.94,6.08,3.06,.42,6.04,1.48,9.1,1.73,6.97,.57,14.18,2.07,20.88,.88,7.54-1.35,14.53-2.18,21.71,.79,1.17,.49,2.56,.65,3.84,.64,7.09-.04,14.18-.16,21.27-.33,.78-.02,1.68-.27,2.3-.73,7.74-5.74,16.36-6.36,25.66-5.49,9.05,.84,18.25-.03,27.32,.7,15.73,1.28,31.37,4.07,47.1,4.59,11.94,.39,24.27,1.14,35.9-3.5,1.21-.48,2.61-.49,3.92-.74,16.83-3.21,33.66-6.43,50.49-9.62,2.94-.56,5.88-1.23,8.85-1.49,14.05-1.26,28.13-2.23,42.17-3.63,12.09-1.2,24.14-2.77,36.18-4.4,1.36-.19,2.59-1.81,3.75-2.9,1.94-1.82,4.05-5.55,5.62-5.32,6.07,.9,10.48-2.38,15.5-4.32,2.03-.79,4.55-.74,6.79-.5,5.43,.59,10.8,1.75,16.23,2.26,32.1,3.01,64.24,2.05,96.38,.68,6.87-.29,13.61-.33,20.58,.36,9,.89,18.38-1.78,27.56-3.11,2.93-.42,5.73-1.8,8.66-2.17,8.69-1.12,17.41-2.08,26.14-2.89,17.33-1.61,34.18-4.59,51.99,1.21,15.32,4.99,32,8.37,48.71,1.91,7.29-2.82,15.47-3.68,23.34-4.61,7.32-.86,12.37-4.23,15.71-10.59,.77-1.47,1.72-2.85,2.55-4.3,2.61-4.51,6.15-7.7,11.39-9.02,4.46-1.13,8.78-2.76,12.04-3.81-1.99-8.68-3.56-16.74-5.71-24.63-2.34-8.6,1.29-18.74,9.27-22.3,6.68-2.98,13.19-6.39,20.9-6.99,6.9-.53,13.74-2.47,20.44-4.36,2.25-.63,4.05-2.98,5.99-4.61,3.21-2.71,5.95-6.67,9.64-7.95,5.51-1.91,11.68-1.93,17.56-2.79,5.01-.73,10.53-.57,11.49-7.65,.19-1.41,1.7-2.88,2.96-3.88,5.85-4.67,12.46-7.6,20.04-7.94,6.77-.31,13.56-.32,20.3-.89,16.52-1.41,33-3.21,49.52-4.57,14.82-1.23,27.63-8.15,40.65-14.24,12.16-5.68,24.23-11.7,38.01-9.87,8.82,1.17,17.28,1.06,25.6-1.79,12.9-4.41,25.65-9.05,37.48-16.14,14.11-8.46,29.1-14.61,46.17-13.45,13.27,.9,26.55,1.55,39.82,2.31,.33,.02,.67,.04,.99,.14,13.65,3.91,27.24,2.86,40.87-.24,5.57-1.27,7.68-3.62,7.42-9.25-.23-4.99-.74-10.01-.37-14.97,1.39-18.69,8.84-30.23,25.3-35.7,2.98-.99,5.77-2.52,8.66-3.79,5.15-2.26,10.11-5.21,15.48-6.63,26.52-6.99,53.65-7.28,80.84-6.62,3.39,.08,7.56,.51,10.07-1.17,18.49-12.31,39.18-16.03,60.26-12.43,16.06,2.75,29.92-4.5,45.48-4.63-1.46-5.64-.18-10,4.57-12.47,1.27-.66,2.46-1.3,3.48-2.05v-30.92c-660-.13-1320-.14-1980-.14V473.88Z"/><path class="cls-2" d="M1955,1025h93v-1h-94.59c.53,.28,1.06,.6,1.59,1Z"/><path class="cls-2" d="M1937.2,1024c-.04,.31-.1,.63-.2,1h3c.89-.35,1.78-.69,2.67-1h-5.46Z"/><path class="cls-2" d="M922.28,566.15h23.54c-7.43-.11-14.87-.22-22.3-.33-.35,0-.7,.12-1.24,.33Z"/><path class="cls-2" d="M910.92,566.15h2.29c-.01-.06-.03-.13-.04-.19-.75,.06-1.5,.13-2.25,.19Z"/><path d="M2048,0H0V1025H1937c.1-.37,.16-.69,.2-1h5.46c-.89,.31-1.78,.65-2.67,1h15c-.53-.4-1.06-.72-1.59-1h94.59V0ZM922.28,566.15c.53-.21,.89-.34,1.24-.33,7.43,.11,14.87,.22,22.3,.33h-23.54Zm-11.36,0c.75-.06,1.5-.13,2.25-.19,.01,.06,.03,.13,.04,.19h-2.29ZM2014,34V173.62c-1.02,.75-2.21,1.39-3.48,2.05-4.75,2.48-6.04,6.83-4.57,12.47-15.56,.13-29.42,7.38-45.48,4.63-21.08-3.61-41.76,.11-60.26,12.43-2.51,1.67-6.68,1.25-10.07,1.17-27.19-.66-54.32-.37-80.84,6.62-5.37,1.42-10.34,4.37-15.48,6.63-2.89,1.27-5.68,2.8-8.66,3.79-16.45,5.47-23.9,17.01-25.3,35.7-.37,4.95,.14,9.98,.37,14.97,.26,5.64-1.84,7.99-7.42,9.25-13.63,3.1-27.22,4.15-40.87,.24-.32-.09-.66-.12-.99-.14-13.28-.76-26.56-1.41-39.82-2.31-17.07-1.16-32.06,4.99-46.17,13.45-11.83,7.1-24.58,11.73-37.48,16.14-8.32,2.85-16.78,2.96-25.6,1.79-13.78-1.83-25.85,4.19-38.01,9.87-13.02,6.08-25.83,13.01-40.65,14.24-16.52,1.37-33,3.17-49.52,4.57-6.74,.57-13.53,.58-20.3,.89-7.59,.34-14.19,3.27-20.04,7.94-1.25,1-2.76,2.46-2.96,3.88-.97,7.09-6.49,6.92-11.49,7.65-5.88,.86-12.05,.88-17.56,2.79-3.69,1.28-6.43,5.24-9.64,7.95-1.94,1.64-3.74,3.98-5.99,4.61-6.7,1.89-13.55,3.83-20.44,4.36-7.72,.6-14.22,4.01-20.9,6.99-7.97,3.55-11.6,13.69-9.27,22.3,2.15,7.9,3.72,15.95,5.71,24.63-3.26,1.05-7.59,2.68-12.04,3.81-5.24,1.33-8.78,4.51-11.39,9.02-.83,1.44-1.78,2.82-2.55,4.3-3.34,6.36-8.38,9.73-15.71,10.59-7.87,.93-16.04,1.79-23.34,4.61-16.71,6.46-33.39,3.08-48.71-1.91-17.81-5.8-34.65-2.82-51.99-1.21-8.73,.81-17.45,1.77-26.14,2.89-2.93,.38-5.73,1.75-8.66,2.17-9.19,1.33-18.56,4-27.56,3.11-6.97-.69-13.71-.65-20.58-.36-32.14,1.37-64.28,2.34-96.38-.68-5.43-.51-10.8-1.68-16.23-2.26-2.24-.24-4.76-.29-6.79,.5-5.02,1.95-9.43,5.22-15.5,4.32-1.57-.23-3.68,3.5-5.62,5.32-1.16,1.09-2.39,2.72-3.75,2.9-12.04,1.64-24.09,3.2-36.18,4.4-14.04,1.4-28.12,2.37-42.17,3.63-2.97,.27-5.91,.93-8.85,1.49-16.83,3.2-33.66,6.41-50.49,9.62-1.31,.25-2.71,.26-3.92,.74-11.62,4.64-23.95,3.89-35.9,3.5-15.73-.52-31.38-3.31-47.1-4.59-9.07-.73-18.27,.14-27.32-.7-9.31-.87-17.93-.25-25.66,5.49-.61,.46-1.52,.71-2.3,.73-7.09,.16-14.18,.28-21.27,.33-1.29,0-2.67-.16-3.84-.64-7.18-2.97-14.17-2.14-21.71-.79-6.7,1.2-13.92-.3-20.88-.88-3.06-.25-6.04-1.31-9.1-1.73-15.3-2.11-30.58-4.53-45.94-6.08-23.53-2.38-47.08-3.34-70.81-2.25-21.22,.98-42.22-1.12-62.64-8.87-9.83-3.73-21.17-3.7-31.88-4.84-6.25-.66-12.61-.16-18.91-.41-1.11-.04-2.4-.98-3.24-1.85-5.61-5.84-9.86-6.7-17.19-3.29-1.51,.7-3.03,1.8-4.58,1.86-1.6,.06-4.34-.52-4.7-1.5-2.12-5.82-6.34-4.59-10.32-3.31-6.95,2.25-13.8,4.81-20.63,7.37-4.97,1.87-9.83,3.89-13.96-1.57-.32-.43-1.21-.73-1.76-.65-4.74,.71-9.47,1.44-14.17,2.38-1.03,.2-2.36,1.02-2.76,1.92-2.6,5.77-7.85,4.62-12.36,4.6-8.31-.04-16.54-.61-23.76,4.9-1.74,1.33-4.4,1.39-6.58,2.21-3.14,1.17-6.16,3.32-9.34,3.56-5.47,.42-11.19,.4-16.51-.76-4.25-.92-7.9-1.63-12.4-.58-3.52,.82-7.81-.86-11.57-2.02-4.38-1.35-8.44-4.17-12.88-4.85-5.02-.78-9.19-3.18-13.75-4.67-7.77-2.55-16.03-4.03-24.2-4.82-6.55-.63-13.26,.48-19.89,.76-6.65,.28-12.66-.56-18.81-4.3-3.13-1.9-7.44-1.88-11.66-1.98V34H2014Z"/></g></g></svg>